<svg width="145" height="209" viewBox="0 0 145 209" fill="none" xmlns="http://www.w3.org/2000/svg">
<path d="M112.586 185.584C139.495 166.787 145.596 131.896 144.538 100.532C144.355 95.3067 144.929 89.7681 142.448 85.183C139.966 80.598 134.14 77.4498 129.385 79.6444C125.466 81.4863 123.807 86.006 121.625 89.742C118.726 94.7426 114.468 98.819 109.346 101.499C106.015 103.223 101.887 104.281 98.6086 102.465C94.0889 99.9833 93.5533 93.7392 93.5925 88.5271C93.6447 78.8258 93.7013 69.1201 93.7623 59.41C93.7623 54.1849 93.7623 48.8944 92.1947 43.9567C90.6272 39.0189 86.9696 34.4208 82.0449 33.0231C77.1202 31.6254 70.9676 34.4992 69.9225 39.5545C69.4784 41.6707 69.9225 43.8783 69.7658 46.0859C69.609 48.2936 68.6163 50.6448 66.5654 51.2457C64.5145 51.8466 62.3984 50.3836 60.8439 48.8553C55.4751 43.6301 51.8305 36.8243 48.4211 30.097C45.0117 23.3696 41.7068 16.4594 36.8213 10.7248C31.9358 4.99018 25.1954 0.444306 17.7495 0.0262945C10.3037 -0.391717 2.33534 4.20639 0.454285 11.5216C-1.42676 18.8368 2.84479 26.3218 7.50822 32.2524C14.4217 41.0693 22.5747 48.8395 31.7137 55.3213C33.3465 56.497 35.1362 57.7511 35.7632 59.6844C36.8866 63.146 33.5947 66.5946 30.1723 67.7441C26.2534 69.0504 22.0864 68.6324 18.0238 69.0504C13.9613 69.4684 9.55913 71.3233 8.03076 75.1638C5.88846 80.4804 10.3429 86.0583 14.7189 89.7159C23.495 97.0254 33.4638 102.77 44.1887 106.698C48.0292 108.108 52.0264 109.31 55.1485 112.027C58.2705 114.744 60.0993 119.395 58.2313 123.065C56.3633 126.736 51.5692 127.912 47.5589 127.167C43.5486 126.422 39.9564 124.241 36.1289 122.804C28.9836 120.1 19.7351 120.596 15.15 126.723C12.1455 130.785 11.8712 136.455 13.3996 141.301C14.9279 146.147 18.0108 150.314 21.2373 154.168C32.7065 167.623 47.363 178.452 63.992 184.213C80.621 189.973 95.9699 191.528 112.468 185.519" fill="url(#paint0_linear)"/>
<path d="M113.004 208.836C111.543 194.294 108.695 179.925 104.5 165.925C99.2894 148.838 93.1049 132.064 85.9769 115.685L80.4382 102.766C78.6094 98.5333 76.8067 94.3271 74.782 90.3298C70.8803 82.6604 66.5587 75.2119 61.8367 68.0184C57.3692 61.1213 52.8887 54.7335 48.6432 48.7899C44.3978 42.8463 40.3352 37.4122 36.4164 32.592C30.2719 24.9681 23.5321 17.8439 16.2604 11.2865C13.6478 8.9613 11.6362 7.22394 10.2384 6.06134L8.63171 4.75506C8.45886 4.59161 8.26568 4.45111 8.05693 4.33704C8.2108 4.51417 8.38139 4.67606 8.56637 4.8204L10.0947 6.19198C11.4663 7.39376 13.4649 9.1703 15.9991 11.5347C23.1428 18.1984 29.7797 25.3855 35.8547 33.0361C39.7735 37.8563 43.6924 43.3166 47.9639 49.2602C52.2355 55.2038 56.6246 61.6046 61.0268 68.5018C65.7129 75.6643 70.0039 83.0777 73.8806 90.7087C75.8923 94.6928 77.682 98.8468 79.4977 103.105L85.0233 116.011C92.1423 132.354 98.3395 149.084 103.586 166.12C107.809 180.06 110.713 194.366 112.259 208.849" fill="white" fill-opacity="0.06"/>
<path d="M74.5078 90.2906C74.7535 89.5699 74.9242 88.8257 75.0172 88.07C75.2916 86.633 75.6181 84.543 75.9839 81.9435C76.7154 76.7183 77.4861 69.5599 78.3091 61.6307C79.132 53.7016 80.0072 46.5301 80.8171 41.3702C81.2221 38.7577 81.5617 36.7068 81.823 35.2699C82.0033 34.5254 82.0997 33.7629 82.1104 32.9969C81.8174 33.7039 81.5985 34.4394 81.4572 35.1915C81.0914 36.6023 80.6342 38.6793 80.1509 41.2527C79.1712 46.3994 78.1784 53.584 77.3555 61.5262C76.5325 69.4684 75.8533 76.444 75.3046 81.8651C75.0434 84.3078 74.8213 86.3587 74.6515 88.0177C74.5192 88.7677 74.471 89.53 74.5078 90.2906Z" fill="white" fill-opacity="0.06"/>
<path d="M7.56055 77.7764C8.41949 77.9655 9.29407 78.0748 10.1731 78.103C11.8974 78.2597 14.3794 78.4557 17.4491 78.8214C23.5756 79.4746 32.0142 80.6894 41.2627 82.4268C50.5112 84.1641 58.8192 86.1366 64.7759 87.7303C67.7673 88.501 70.1708 89.1803 71.8298 89.6505C72.6784 89.9463 73.5532 90.1606 74.4424 90.2906C73.6404 89.8761 72.8005 89.5392 71.9343 89.2848C70.3014 88.71 67.924 87.9785 64.9587 87.0641C59.0151 85.3137 50.7072 83.2497 41.4456 81.4732C32.184 79.6966 23.6801 78.6255 17.5144 78.1291C14.4316 77.8678 11.9235 77.7633 10.1992 77.7242C9.31986 77.6631 8.43681 77.6806 7.56055 77.7764Z" fill="white" fill-opacity="0.06"/>
<path d="M103.664 164.684C103.664 164.684 103.86 164.422 104.134 163.874C104.408 163.325 104.813 162.424 105.271 161.457C106.263 159.341 107.609 156.232 109.19 152.418C112.416 144.75 116.544 134.012 120.946 122.112C125.348 110.211 129.372 99.4346 132.428 91.7145C133.931 87.9524 135.172 84.8696 136.086 82.5705C136.478 81.5777 136.804 80.7548 137.066 80.0755C137.201 79.7935 137.297 79.4948 137.353 79.1872C137.167 79.4366 137.013 79.7088 136.896 79.9971C136.582 80.6503 136.203 81.4471 135.746 82.4268C134.767 84.5299 133.421 87.6519 131.827 91.4532C128.601 99.1211 124.473 109.859 120.071 121.772C115.669 133.685 111.658 144.436 108.589 152.156C107.086 155.918 105.858 159.001 104.931 161.3C104.539 162.293 104.213 163.116 103.951 163.795C103.824 164.08 103.728 164.378 103.664 164.684Z" fill="white" fill-opacity="0.06"/>
<path d="M14.7058 136.011C14.9825 136.175 15.2817 136.298 15.594 136.376L18.2066 137.252L27.7425 140.334C35.7762 142.947 46.8535 146.67 59.0934 150.785C71.3333 154.9 82.4236 158.622 90.5356 161C94.5851 162.228 97.8639 163.181 100.15 163.795L102.762 164.488C103.061 164.591 103.374 164.648 103.69 164.657C103.416 164.498 103.121 164.375 102.815 164.292L100.202 163.43L90.7185 160.334C82.6718 157.721 71.6076 153.998 59.3677 149.883C47.1278 145.769 36.0244 142.111 27.9254 139.668C23.8759 138.44 20.5841 137.487 18.2981 136.873L15.6855 136.18C15.3662 136.088 15.0376 136.031 14.7058 136.011Z" fill="white" fill-opacity="0.06"/>
<defs>
<linearGradient id="paint0_linear" x1="72.3248" y1="0" x2="72.3248" y2="189.344" gradientUnits="userSpaceOnUse">
<stop stop-color="#100C29"/>
<stop offset="1" stop-color="#100C29" stop-opacity="0"/>
</linearGradient>
</defs>
</svg>
