<svg width="145" height="209" viewBox="0 0 145 209" fill="none" xmlns="http://www.w3.org/2000/svg">
<path d="M32.0641 185.584C5.15459 166.787 -0.945793 131.896 0.112299 100.532C0.295179 95.3067 -0.279579 89.7681 2.20236 85.183C4.68431 80.598 10.5103 77.4498 15.2652 79.6444C19.1841 81.4863 20.8431 86.006 23.0246 89.742C25.9242 94.7426 30.1817 98.819 35.3036 101.499C38.6347 103.223 42.7625 104.281 46.0413 102.465C50.5611 99.9833 51.0966 93.7392 51.0574 88.5271C51.0052 78.8258 50.9486 69.1201 50.8876 59.41C50.8876 54.1849 50.8876 48.8944 52.4552 43.9567C54.0227 39.0189 57.6803 34.4208 62.605 33.0231C67.5297 31.6254 73.6823 34.4992 74.7274 39.5545C75.1715 41.6707 74.7274 43.8783 74.8841 46.0859C75.0409 48.2936 76.0336 50.6448 78.0845 51.2457C80.1354 51.8466 82.2515 50.3836 83.806 48.8553C89.1749 43.6301 92.8194 36.8243 96.2288 30.097C99.6382 23.3696 102.943 16.4594 107.829 10.7248C112.714 4.99018 119.455 0.444306 126.9 0.0262945C134.346 -0.391717 142.315 4.20639 144.196 11.5216C146.077 18.8368 141.805 26.3218 137.142 32.2524C130.228 41.0693 122.075 48.8395 112.936 55.3213C111.303 56.497 109.514 57.7511 108.887 59.6844C107.763 63.146 111.055 66.5946 114.478 67.7441C118.396 69.0504 122.564 68.6324 126.626 69.0504C130.689 69.4684 135.091 71.3233 136.619 75.1638C138.761 80.4804 134.307 86.0583 129.931 89.7159C121.155 97.0254 111.186 102.77 100.461 106.698C96.6207 108.108 92.6235 109.31 89.5014 112.027C86.3794 114.744 84.5506 119.395 86.4186 123.065C88.2866 126.736 93.0807 127.912 97.091 127.167C101.101 126.422 104.694 124.241 108.521 122.804C115.666 120.1 124.915 120.596 129.5 126.723C132.504 130.785 132.779 136.455 131.25 141.301C129.722 146.147 126.639 150.314 123.413 154.168C111.943 167.623 97.2869 178.452 80.6579 184.213C64.0289 189.973 48.68 191.528 32.1816 185.519" fill="url(#paint0_linear)"/>
<path d="M31.646 208.836C33.1073 194.294 35.9549 179.925 40.1499 165.925C45.3605 148.838 51.545 132.064 58.673 115.685L64.2117 102.766C66.0405 98.5333 67.8432 94.3271 69.8679 90.3298C73.7696 82.6604 78.0912 75.2119 82.8132 68.0185C87.2807 61.1213 91.7612 54.7335 96.0067 48.7899C100.252 42.8463 104.315 37.4122 108.234 32.592C114.378 24.9681 121.118 17.8439 128.389 11.2865C131.002 8.9613 133.014 7.22394 134.411 6.06135L136.018 4.75506C136.191 4.59162 136.384 4.45111 136.593 4.33704C136.439 4.51417 136.269 4.67606 136.084 4.8204L134.555 6.19198C133.184 7.39377 131.185 9.17031 128.651 11.5347C121.507 18.1985 114.87 25.3855 108.795 33.0361C104.876 37.8563 100.958 43.3166 96.686 49.2602C92.4144 55.2038 88.0253 61.6046 83.6231 68.5018C78.937 75.6643 74.646 83.0777 70.7693 90.7087C68.7576 94.6928 66.9679 98.8468 65.1522 103.105L59.6266 116.011C52.5076 132.354 46.3104 149.084 41.0643 166.12C36.8406 180.06 33.9366 194.366 32.3906 208.849" fill="white" fill-opacity="0.06"/>
<path d="M70.1421 90.2906C69.8964 89.5699 69.7257 88.8257 69.6327 88.07C69.3584 86.633 69.0318 84.543 68.666 81.9435C67.9345 76.7183 67.1638 69.5599 66.3408 61.6307C65.5179 53.7016 64.6427 46.5301 63.8328 41.3702C63.4278 38.7577 63.0882 36.7068 62.8269 35.2699C62.6466 34.5254 62.5503 33.7629 62.5396 32.9969C62.8325 33.7039 63.0514 34.4394 63.1927 35.1915C63.5585 36.6023 64.0157 38.6793 64.499 41.2527C65.4787 46.3994 66.4715 53.584 67.2944 61.5262C68.1174 69.4684 68.7966 76.444 69.3453 81.8651C69.6065 84.3078 69.8286 86.3587 69.9984 88.0177C70.1307 88.7677 70.1789 89.53 70.1421 90.2906Z" fill="white" fill-opacity="0.06"/>
<path d="M137.089 77.7764C136.23 77.9655 135.356 78.0748 134.477 78.103C132.752 78.2597 130.271 78.4557 127.201 78.8214C121.074 79.4746 112.636 80.6894 103.387 82.4268C94.1387 84.1641 85.8307 86.1366 79.874 87.7303C76.8826 88.501 74.4791 89.1803 72.8201 89.6506C71.9715 89.9463 71.0967 90.1606 70.2075 90.2906C71.0095 89.8761 71.8494 89.5392 72.7156 89.2848C74.3485 88.71 76.7259 87.9785 79.6912 87.0641C85.6348 85.3137 93.9427 83.2497 103.204 81.4732C112.466 79.6967 120.97 78.6255 127.135 78.1291C130.218 77.8679 132.726 77.7634 134.451 77.7242C135.33 77.6631 136.213 77.6806 137.089 77.7764Z" fill="white" fill-opacity="0.06"/>
<path d="M40.986 164.684C40.986 164.684 40.7901 164.422 40.5157 163.874C40.2414 163.325 39.8364 162.424 39.3792 161.457C38.3865 159.341 37.041 156.232 35.4604 152.418C32.2339 144.75 28.106 134.012 23.7038 122.112C19.3016 110.211 15.2783 99.4346 12.2216 91.7145C10.7194 87.9524 9.47837 84.8696 8.56397 82.5705C8.17209 81.5777 7.84552 80.7548 7.58426 80.0755C7.44938 79.7935 7.35273 79.4948 7.29688 79.1872C7.48312 79.4366 7.63677 79.7088 7.75408 79.9971C8.06759 80.6503 8.44642 81.4471 8.90362 82.4268C9.88333 84.5299 11.2288 87.6519 12.8225 91.4532C16.049 99.1211 20.1769 109.859 24.579 121.772C28.9812 133.685 32.9915 144.436 36.0613 152.156C37.5635 155.918 38.7914 159.001 39.7189 161.3C40.1108 162.293 40.4373 163.116 40.6986 163.795C40.8258 164.08 40.9221 164.378 40.986 164.684Z" fill="white" fill-opacity="0.06"/>
<path d="M129.944 136.011C129.667 136.175 129.368 136.298 129.056 136.376L126.443 137.252L116.907 140.334C108.874 142.947 97.7964 146.67 85.5565 150.785C73.3166 154.9 62.2263 158.622 54.1143 161C50.0648 162.228 46.786 163.181 44.5 163.795L41.8874 164.488C41.5886 164.591 41.2759 164.648 40.96 164.657C41.2344 164.498 41.5286 164.375 41.8351 164.292L44.4477 163.43L53.9314 160.334C61.9781 157.721 73.0423 153.998 85.2822 149.883C97.5221 145.769 108.626 142.111 116.725 139.668C120.774 138.44 124.066 137.487 126.352 136.873L128.964 136.18C129.284 136.088 129.612 136.031 129.944 136.011Z" fill="white" fill-opacity="0.06"/>
<defs>
<linearGradient id="paint0_linear" x1="72.3251" y1="0" x2="72.3251" y2="189.344" gradientUnits="userSpaceOnUse">
<stop stop-color="#100C29"/>
<stop offset="1" stop-color="#100C29" stop-opacity="0"/>
</linearGradient>
</defs>
</svg>
