<svg width="39" height="39" viewBox="0 0 39 39" fill="none" xmlns="http://www.w3.org/2000/svg">
<path fill-rule="evenodd" clip-rule="evenodd" d="M34.2814 0C28.6254 0.000238326 23.2011 2.24741 19.2018 6.24719L18.0831 7.36354C17.3178 8.1289 16.5817 8.92595 15.8798 9.7498H8.0707C7.34238 9.75002 6.62628 9.93673 5.99056 10.2921C5.35487 10.6476 4.82076 11.1598 4.43913 11.7802L0.271351 18.5417C0.125049 18.7793 0.0350975 19.0473 0.00839063 19.3251C-0.0183162 19.6029 0.0189309 19.8832 0.117277 20.1443C0.215623 20.4055 0.372457 20.6407 0.575759 20.8319C0.779059 21.0231 1.02343 21.1651 1.29014 21.2473L8.85063 23.5726C8.94081 23.6969 9.04318 23.8163 9.15285 23.926L15.073 29.8442C15.1852 29.9563 15.3022 30.0586 15.4265 30.1488L17.7516 37.7098C17.8337 37.9765 17.9758 38.2209 18.167 38.4242C18.3582 38.6275 18.5933 38.7845 18.8545 38.8827C19.1156 38.9812 19.3959 39.0182 19.6736 38.9917C19.9514 38.9648 20.2194 38.8749 20.457 38.7287L27.2181 34.5679C27.8384 34.1862 28.3507 33.6522 28.7061 33.0165C29.0614 32.3806 29.2481 31.6644 29.2484 30.9361V23.1192C30.0722 22.4172 30.8692 21.6811 31.6345 20.9158L32.7508 19.797C36.7506 15.7984 38.9985 10.3748 39 4.7189V4.26554C39 3.13424 38.5506 2.04929 37.7506 1.24935C36.9507 0.449403 35.8659 0 34.7347 0H34.2814ZM25.5949 25.8979C25.3804 26.0442 25.1635 26.1855 24.9466 26.3245L19.2189 30.0318L20.5545 34.3778L25.3048 31.4529C25.3936 31.3983 25.4667 31.322 25.5174 31.2311C25.5683 31.1401 25.5949 31.0378 25.5949 30.9337V25.8979ZM8.96762 19.7824L12.6772 14.0543C12.8185 13.835 12.9623 13.6205 13.1061 13.406H8.06826C7.96416 13.406 7.86177 13.4326 7.77091 13.4834C7.68002 13.5341 7.60366 13.6074 7.54911 13.696L4.62436 18.4491L8.96762 19.7824ZM21.7878 8.83088C25.1008 5.51817 29.594 3.65686 34.279 3.65618H34.7323C34.8939 3.65618 35.0489 3.72038 35.1632 3.83465C35.2775 3.94894 35.3416 4.10394 35.3416 4.26554V4.7189C35.3419 7.03968 34.8851 9.33778 33.9972 11.482C33.1095 13.6262 31.808 15.5745 30.1672 17.2157L29.0485 18.3321C27.1962 20.1845 25.1562 21.8347 22.9577 23.2557L17.3105 26.9119L12.0874 21.6884L15.7433 16.0409C17.1652 13.8419 18.8155 11.7993 20.6666 9.94724L21.7829 8.83088H21.7878ZM29.2508 12.1873C29.2508 12.8337 28.9939 13.4537 28.5369 13.9108C28.0799 14.3679 27.4599 14.6247 26.8135 14.6247C26.1672 14.6247 25.5471 14.3679 25.0901 13.9108C24.6329 13.4537 24.3762 12.8337 24.3762 12.1873C24.3762 11.5408 24.6329 10.9208 25.0901 10.4637C25.5471 10.0066 26.1672 9.7498 26.8135 9.7498C27.4599 9.7498 28.0799 10.0066 28.5369 10.4637C28.9939 10.9208 29.2508 11.5408 29.2508 12.1873ZM8.68002 35.4893C9.0392 35.1546 9.32732 34.751 9.52713 34.3025C9.72696 33.854 9.8344 33.3699 9.84305 32.8788C9.85173 32.3879 9.76142 31.9004 9.57755 31.4451C9.39366 30.9897 9.11998 30.5764 8.77283 30.229C8.42566 29.8819 8.01213 29.6082 7.55691 29.4244C7.10168 29.2404 6.61407 29.1502 6.1232 29.1587C5.6323 29.1675 5.14818 29.275 4.69972 29.4746C4.25128 29.6745 3.84764 29.9626 3.51295 30.3219C1.72398 32.1012 0.961105 36.006 0.710064 37.6416C0.695221 37.7298 0.701672 37.8202 0.72888 37.9053C0.756087 37.9904 0.803264 38.0679 0.86647 38.131C0.929679 38.1944 1.00709 38.2414 1.09223 38.2687C1.17738 38.2958 1.2678 38.3023 1.35595 38.2875C2.99137 38.0364 6.89592 37.2735 8.68002 35.4893Z" fill="#090528"/>
</svg>
