<svg width="36" height="26" viewBox="0 0 36 26" fill="none" xmlns="http://www.w3.org/2000/svg">
<path fill-rule="evenodd" clip-rule="evenodd" d="M12.4331 3.54531C11.2211 3.54531 10.0588 4.04319 9.20175 4.92943C8.34474 5.8157 7.86325 7.01769 7.86325 8.27104C7.86325 9.52438 8.34474 10.7264 9.20175 11.6126C10.0588 12.4989 11.2211 12.9968 12.4331 12.9968C13.6451 12.9968 14.8075 12.4989 15.6645 11.6126C16.5216 10.7264 17.003 9.52438 17.003 8.27104C17.003 7.01769 16.5216 5.8157 15.6645 4.92943C14.8075 4.04319 13.6451 3.54531 12.4331 3.54531ZM4.43584 8.27104C4.43568 6.90027 4.76501 5.55096 5.39421 4.34446C6.02342 3.13798 6.93275 2.11214 8.04045 1.35922C9.14814 0.60629 10.4195 0.149903 11.74 0.0311215C13.0606 -0.0876833 14.389 0.134828 15.6058 0.678618C16.8226 1.22243 17.8896 2.07046 18.7108 3.14649C19.532 4.22249 20.0817 5.49272 20.3105 6.8429C20.5392 8.19312 20.4398 9.58094 20.0212 10.8816C19.6026 12.1822 18.878 13.3548 17.9124 14.294C19.7332 15.2074 21.3141 16.5616 22.5209 18.2415C23.7279 19.9214 24.5251 21.8776 24.845 23.9439C24.9163 24.4082 24.8061 24.8829 24.5388 25.2633C24.2717 25.6438 23.8693 25.8987 23.4203 25.9724C22.9713 26.0462 22.5123 25.9323 22.1444 25.6558C21.7765 25.3796 21.5299 24.9635 21.4587 24.4992C21.1129 22.2814 20.0147 20.2633 18.3608 18.8066C16.707 17.35 14.6055 16.55 12.4331 16.55C10.2607 16.55 8.15931 17.35 6.50545 18.8066C4.85158 20.2633 3.75337 22.2814 3.40761 24.4992C3.37222 24.7291 3.29334 24.9496 3.17556 25.148C3.05774 25.3465 2.90331 25.519 2.72106 25.6556C2.53879 25.7924 2.33228 25.8904 2.11331 25.9446C1.89434 25.9989 1.6672 26.0079 1.44485 25.9713C1.22251 25.9346 1.00931 25.8531 0.817439 25.7312C0.625567 25.6095 0.458778 25.4498 0.326592 25.2612C0.194406 25.0729 0.0994115 24.8593 0.047036 24.6327C-0.0053401 24.4063 -0.0140738 24.1715 0.0213336 23.9416C0.34199 21.8759 1.13953 19.9209 2.34633 18.2418C3.55314 16.5627 5.13364 15.2094 6.95385 14.2963C6.15761 13.5238 5.52327 12.5904 5.09015 11.5539C4.65702 10.5175 4.43431 9.40011 4.43584 8.27104ZM25.0003 4.72675C24.5459 4.72675 24.1099 4.91344 23.7886 5.2458C23.4671 5.57813 23.2866 6.02887 23.2866 6.4989C23.2866 6.96889 23.4671 7.41963 23.7886 7.75199C24.1099 8.08433 24.5459 8.27104 25.0003 8.27104C25.7733 8.27109 26.5237 8.54143 27.1297 9.03815C27.7354 9.53487 28.1611 10.2288 28.3373 11.0072C28.5134 11.7856 28.43 12.6028 28.1005 13.326C27.7711 14.0492 27.2149 14.636 26.5221 14.991C26.2365 15.138 25.9961 15.3644 25.8282 15.645C25.6602 15.9255 25.5713 16.2489 25.5716 16.5789V17.4106C25.5711 17.8086 25.7002 18.1953 25.9381 18.5082C26.1759 18.8211 26.5089 19.0422 26.8831 19.1355C29.6251 19.8184 31.8232 21.9709 32.6458 24.7402C32.7109 24.9635 32.8183 25.1714 32.9613 25.3519C33.1046 25.5322 33.2807 25.6818 33.48 25.7917C33.679 25.9013 33.8972 25.9694 34.1218 25.9918C34.3464 26.0143 34.5731 25.9904 34.789 25.9221C35.0047 25.8536 35.2053 25.7418 35.379 25.593C35.5529 25.4441 35.6966 25.2612 35.8019 25.0547C35.9073 24.8484 35.9722 24.6225 35.9927 24.39C36.0135 24.1578 35.9895 23.9234 35.9224 23.7005C35.4649 22.1661 34.7104 20.7439 33.7048 19.5206C32.6992 18.2971 31.4635 17.2978 30.0729 16.5836C30.9661 15.5674 31.5549 14.3048 31.7672 12.9492C31.9797 11.5935 31.8067 10.2033 31.2695 8.94741C30.7321 7.69153 29.8536 6.62408 28.7408 5.87479C27.6278 5.1255 26.3284 4.72665 25.0003 4.72675Z" fill="#090528"/>
</svg>
